<svg width="48" height="48" viewBox="0 0 48 48" fill="none" xmlns="http://www.w3.org/2000/svg">
<path opacity="0.75" d="M6.99902 7.03906C16.3561 7.03906 23.954 14.6397 23.954 24.0001C14.597 24.0001 6.99902 16.3994 6.99902 7.03906ZM23.9915 24.0001C23.9915 33.3604 31.5894 40.9611 40.9464 40.9611C40.9464 31.6007 33.3485 24.0001 23.9915 24.0001Z" fill="#002872"/>
<path opacity="0.75" d="M0 24C6.6248 17.3729 17.3667 17.3729 23.9915 24C17.3667 30.6272 6.6248 30.6272 0 24ZM23.9915 24C30.6163 30.6272 41.3582 30.6272 47.983 24C41.3208 17.3729 30.6163 17.3729 23.9915 24Z" fill="#0451DD"/>
<path opacity="0.75" d="M23.9915 48C17.3667 41.3729 17.3667 30.6271 23.9915 24C30.6163 30.6271 30.6163 41.3729 23.9915 48ZM23.9915 24C30.6163 17.3729 30.6163 6.62714 23.9915 0C17.3667 6.62714 17.3667 17.3729 23.9915 24Z" fill="#AAC5F7"/>
<path opacity="0.75" d="M6.99902 40.9611C6.99902 31.6007 14.597 24.0001 23.954 24.0001C23.9914 33.3604 16.3935 40.9611 6.99902 40.9611ZM23.9915 24.0001C33.3485 24.0001 40.9464 16.3994 40.9464 7.03906C31.552 7.03906 23.9915 14.6022 23.9915 24.0001Z" fill="#85A4DD"/>
<path opacity="0.75" d="M6.99902 7.03906C16.3561 7.03906 23.954 14.6397 23.954 24.0001C14.597 24.0001 6.99902 16.3994 6.99902 7.03906ZM23.9915 24.0001C23.9915 33.3604 31.5894 40.9611 40.9464 40.9611C40.9464 31.6007 33.3485 24.0001 23.9915 24.0001Z" fill="#5893FF"/>
<path opacity="0.75" d="M0 24C6.6248 17.3729 17.3667 17.3729 23.9915 24C17.3667 30.6272 6.6248 30.6272 0 24ZM23.9915 24C30.6163 30.6272 41.3582 30.6272 47.983 24C41.3208 17.3729 30.6163 17.3729 23.9915 24Z" fill="#033CA5"/>
<path opacity="0.75" d="M23.9915 48C17.3667 41.3729 17.3667 30.6271 23.9915 24C30.6163 30.6271 30.6163 41.3729 23.9915 48ZM23.9915 24C30.6163 17.3729 30.6163 6.62714 23.9915 0C17.3667 6.62714 17.3667 17.3729 23.9915 24Z" fill="#79A9FF"/>
<path opacity="0.75" d="M6.99902 40.9611C6.99902 31.6007 14.597 24.0001 23.954 24.0001C23.9914 33.3604 16.3935 40.9611 6.99902 40.9611ZM23.9915 24.0001C33.3485 24.0001 40.9464 16.3994 40.9464 7.03906C31.552 7.03906 23.9915 14.6022 23.9915 24.0001Z" fill="#3A80FF"/>
</svg>
